<svg width="247" height="247" viewBox="0 0 247 247" fill="none" xmlns="http://www.w3.org/2000/svg">
  <circle cx="135" cy="75" r="26" fill="#04A8F0"/>
  <path fill-rule="evenodd" clip-rule="evenodd" d="M135 116C108.49 116 87 94.5101 87 68.0005C88.0797 55.0053 77.0069 55.0007 74.0028 58.527C73.7737 58.7354 73.5549 58.9723 73.3479 59.2392C63.1008 72.4518 57 89.0465 57 107.067C57 122.917 72.0169 133.021 87.8662 133.021H182.134C197.983 133.021 213 122.917 213 107.067C213 89.0465 206.899 72.4518 196.652 59.2392C196.441 58.9666 196.217 58.7252 195.982 58.5134C192.957 55.0046 181.922 55.0307 183 68.0044C182.998 94.5122 161.508 116 135 116Z" fill="#686DF1"/>
  <path d="M143.212 194.183L165.085 162.707C169.693 156.076 164.948 147 156.873 147H135H113.127C105.052 147 100.307 156.076 104.915 162.707L126.788 194.183C130.766 199.907 139.234 199.907 143.212 194.183Z" fill="#04A8F0"/>
</svg>
